<svg viewBox="0 0 40 40">
        <path d="M37.6,12.9c-0.6,0.4-1.3,0.7-2,0.9c-0.8,0.2-1.7,0.3-2.5,0.4c-0.9,0.1-1.7,0-2.6-0.2c-1-0.2-1.9-0.5-2.8-0.9
            c0,0-0.6-1.6-0.8-1.9s-0.1-0.4-0.3-0.5c-0.1,0-0.3,0-0.4,0c-0.1-0.3-0.3-0.6-0.4-0.9c-0.2-0.7-2-4.4-2.1-4.7s-0.2-0.8-0.7-0.8
            c-0.8,0.1-1.5,0.3-2.2,0.5c-0.4,0.2-0.7,0.2-1.1,0.2c-0.5,0,0,0.2,0.4,0.3s0.9,0.4,0.5,0.3c-0.8-0.2-1.5-0.5-2.2-0.9
            c-0.5-0.4-1-0.6-1.6-0.6c-0.7,0-0.9,0.3-1.2,0.8s-2.1,5.2-2.2,5.5s-0.2,0.2-0.4,0.2s-0.2,0-0.2,0.3c-0.1,0.5-0.3,1.1-0.5,1.6
            c-0.2,0.5-0.3,0.5-0.6,0.6S7,13.8,5.5,13.9c-1.1,0.1-2.1-0.1-3.2-0.4c-0.2-0.1-0.4,0-0.6,0.1c0.3,0.4,0.6,0.8,1,1.2
            c0.3,0.3,0.3,0.3,0.9,0.4c1.1,0.4,2.3,1,3.3,1.5c0,0,10.4,3.4,12.4,4.2s1.7,1.2,2.4,1.2c2.1-0.4,4.2-1,6.2-1.9
            c1.2-0.5,5.7-3.1,7.1-3.9s1.5-1.1,1.6-1.2l0.9-1.1c0.1-0.4,0.2-0.8,0.2-1.2C38,12.4,37.8,12.7,37.6,12.9z M16.3,14.9
            c-0.3,0.7-0.8,0.3-0.8,0s0.2-0.8,0.5-0.8C16.4,14.2,16.5,14.6,16.3,14.9L16.3,14.9z M21.9,15.8c-0.1,0.1-0.2,0.2-0.2,0.2
            s-0.9-0.9-0.9-0.8s0.2,0.4,0.2,0.5c-0.3,0.2-0.6,0.4-0.9,0.4h-0.1c-0.3,0-0.7-0.1-0.9-0.4c0.1-0.2,0.2-0.3,0.2-0.5
            c0-0.1-0.9,0.8-0.9,0.8s-0.2-0.2-0.2-0.2s-0.1-0.1,0-0.2s0.2-0.4,0.2-0.5s-2.3-1.9-2.3-1.9c0-0.1-0.2-0.7-0.2-0.6s2.4,1.6,2.6,1.7
            s0.1,0,0.1,0s-2.8-1.9-2.8-1.9s-0.1-0.6,0-0.5l3.2,1.9c0.2-0.3,0.6-0.5,1-0.5H20c0.4,0,0.8,0.2,1,0.5l3.2-1.9c0.1-0.1,0,0.5,0,0.5
            s-2.7,1.9-2.8,1.9s0,0.1,0.1,0s2.5-1.7,2.6-1.7s-0.1,0.6-0.2,0.6s-2.3,1.9-2.3,1.9s0.2,0.4,0.2,0.5S22,15.8,21.9,15.8L21.9,15.8z
             M23.7,14.9c-0.1-0.3-0.1-0.7,0.2-0.8s0.5,0.4,0.5,0.8S24,15.5,23.7,14.9L23.7,14.9z"></path>
        <path d="M23.1,37.3l-0.2,0.2C23,37.4,23,37.4,23.1,37.3z"></path>
        <path d="M24.1,21.9c1.7,7.4-1.1,11.5-1.1,11.5c1.3-1.5,2.5-5,2.5-5c-0.4,6-1.9,8.3-2.4,8.9c3.4-3.8,5.4-8.7,5.6-13.8
            c0.3,1.1,0.4,2.3,0.3,3.4c0.5-2.2,0.5-4.5,0.1-6.8C27.6,20.9,25.9,21.5,24.1,21.9z"></path>
        <path d="M16.3,25.9c-1-0.9-1.6-2.2-1.7-3.6c-0.3,0.7-0.9-0.4-1.3-1.5c-0.2-0.6-0.2-1.2,0-1.9l-0.9-0.3c-0.6,1.1-0.3,4.5-0.3,4.5
            c0.1-0.6,0.3-1.3,0.6-1.8c-0.4,2-0.3,3.5,0.8,4.8c0.5,0.7,1.2,1.3,2,1.6c-0.5-1-0.9-2.1-1.1-3.2C15,25.2,15.6,25.7,16.3,25.9z"></path>
        <path d="M21.9,25c-0.2,0-1-0.7-1.3-0.7s-0.6,0.3-0.8,0.3s-0.5-0.3-0.8-0.3S18.1,25,17.9,25c-0.1,0-0.2-0.1-0.3-0.1
            c0.5,0.8,1.4,1.4,2.3,1.5c1-0.1,1.8-0.7,2.3-1.5C22.2,25,22.1,25,21.9,25z"></path>
        <circle cx="17" cy="24.5" r="0.1"></circle>
    </svg>