<svg xmlns="http://www.w3.org/2000/svg" viewBox="0 0 260.59 142.2">
  <defs>
    <mask x="126.32" y="0" width="7.95" height="25.38" maskUnits="userSpaceOnUse">
      <g transform="translate(1.77 -57.76)">
        <g>
          <polygon points="132.5 57.76 124.55 57.76 124.55 83.14 132.5 83.14 132.5 57.76"></polygon>
        </g>
      </g>
    </mask>
  </defs>
  <title>teammate</title>
  <g>
    <g>
      <g>
        <polygon points="260.59 40.22 260.59 92.04 243.13 92.04 184.03 142.2 159.85 134.28 159.85 123.72 178.65 105.25 171.94 98.64 155.82 114.48 137.01 114.48 137.01 56.06 153.13 40.22 260.59 40.22"></polygon>
        <polygon points="107.46 40.22 123.58 56.06 123.58 114.48 104.78 114.48 88.66 98.64 81.94 105.25 100.74 123.72 100.74 134.28 76.57 142.2 17.46 92.04 0 92.04 0 40.22 107.46 40.22"></polygon>
        <g>
          <g>
            <g mask="url(#mask)">
              <path d="M124.55,83.14h8V61.66a4,4,0,0,0-8,0Z" transform="translate(1.77 -57.76)"></path>
            </g>
          </g>
          <path d="M111.16,90.73l6.09-5-14-16.45a4,4,0,0,0-5.6-.48,3.86,3.86,0,0,0-.49,5.5Z" transform="translate(1.77 -57.76)"></path>
          <path d="M139.8,85.71l6.09,5,14-16.45a3.85,3.85,0,0,0-.49-5.5,4,4,0,0,0-5.59.48Z" transform="translate(1.77 -57.76)"></path>
        </g>
      </g>
    </g>
  </g>
</svg>