<svg xmlns="http://www.w3.org/2000/svg" viewBox="0 0 40 40">
    <path d="M21.2,25.8v-9c0-0.3,0-0.3-0.2-0.3h-4.1c-0.2,0-0.2,0-0.2,0.3v9c0,0.3,0,0.3,0.3,0.3h4C21.2,26.1,21.2,26.1,21.2,25.8z
            M18.9,25c-1.3,0-1.4,0-1.4-0.6s0-6.4,0-7s0-0.5,1.4-0.5s1.4,0,1.4,0.5s0,6.5,0,7S20.2,25,18.9,25z"></path>
    <path d="M18.9,17.5c-1,0-1,0-1,0.4v6.3c0,0.4,0,0.4,1,0.4s1,0,1-0.4v-6.3C19.9,17.5,19.9,17.5,18.9,17.5z"></path>
    <path d="M18.9,26.4h-2.1c-0.1,0-0.1,0.1,0,0.2c0.1,0.2,0.2,0.3,0.3,0.5c0,0,0.1,0.1,0.4,0.1h2.9c0.3,0,0.3,0,0.4-0.1
        c0.1-0.2,0.2-0.3,0.3-0.5c0.1-0.1,0.1-0.2,0-0.2H18.9z"></path>
    <path d="M24.2,14.9h-2.8c-0.4,0-0.4,0-0.3,0.1c0.3,0.8,0.3,0.6,0.3,0.8s0.1,0.2,0.1,0.7s0.1,10.1,0,10.3s-0.3,0.3-0.4,0.5
        s-0.1,0.2-0.4,0.2h-3.6c-0.3,0-0.2,0-0.4-0.2s-0.3-0.4-0.4-0.5s0-9.8,0-10.3c0-0.3,0-0.5,0.1-0.8c0.1-0.3,0.2-0.5,0.3-0.8
        c0.1-0.2,0.1-0.1-0.3-0.1h-2.8c-0.2,0-0.2,0-0.8,0.6s-0.7,0.6-0.7,1.2v14.6c0,0.3,0,0.3,0.2,0.5c0.3,0.3,0.6,0.6,1,0.9h1.9
        c0.2,0,0.2,0,0.3-0.1s0.8-1,0.9-1.2s0.2-0.2,0.5-0.2h3.7c0.4,0,0.4,0,0.5,0.2s0.9,1.1,0.9,1.2s0.1,0.1,0.3,0.1h1.9
        c0.4-0.3,0.7-0.6,1-0.9c0.2-0.2,0.2-0.2,0.2-0.5V16.6c0-0.6-0.1-0.6-0.7-1.2S24.4,14.9,24.2,14.9z"></path>
    <path d="M26.4,18l-0.5-0.5v13.8l0.5-0.5c0.1-0.1,0.1-0.2,0.1-0.3V18.3C26.6,18.2,26.5,18.1,26.4,18z"></path>
    <path d="M16.9,16.1h4c0.1,0,0.1-0.1,0.1-0.2c-0.2-0.8-0.6-1.6-1-2.3h-2.3c-0.4,0.7-0.7,1.5-0.9,2.3C16.8,16,16.8,16.1,16.9,16.1z"></path>
    <path d="M11.2,18.3v12.3c0,0.1,0,0.2,0.1,0.3l0.5,0.5V17.5L11.3,18C11.3,18.1,11.2,18.2,11.2,18.3z"></path>
    <path d="M32.8,11.4c-0.2-0.1-1.3,0.3-1.3,0.3c0.9-0.4,0.9-0.5,0.9-0.5c-0.2,0-0.4,0-0.6,0.1c0.1-0.1,0.1-0.1,0.1-0.1
        c-0.2,0-0.3,0-0.5,0c-0.3,0-0.2,0.1-0.6,0.1s-1.1,0.3-1.2,0.3s-0.1,0-0.1,0c-0.4,0.1-0.8,0.2-1.1,0.4c-0.2,0-0.4,0-0.6-0.1
        c-0.3-0.2-0.6-0.3-1.1-0.6s-1.2-0.9-1.4-1.1c-0.4-0.2-0.8-0.3-1.3-0.4c-0.3-0.1-0.3-0.5-0.4-1C23.5,8.6,23.3,8.3,23,8
        c0-0.4,0-0.7-0.2-1.1c-0.2,0.2-0.5,0.5-0.6,0.8c-0.1,0.1-0.1,0.1-0.3,0.1c-0.2,0.1-0.4,0.2-0.6,0.4C21.1,8.6,21,9,21,9.4
        c-0.1,0.5,0,0.5,0.1,0.7c0.2,0.5,0.2,1,0.1,1.5c0,0.1,0,0.2,0,0.2l0.2-0.1c0,0.4,0.1,0.9,0.3,1.2c0.4,0.6,0.9,1.2,1.5,1.6
        c0-0.1,0.2-0.1,0.4,0c0.4,0.2,0.8,0.3,1.2,0.4c0-0.2,0.1-0.1,0.7,0.1c0,0.1-0.1,0.1-0.2,0.1c0,0-0.1,0-0.1,0.1s0,0.1-0.1,0.1
        l-0.4-0.1c-0.1-0.1-0.3-0.1-0.4,0c-0.2,0.1,0.2,0.4,0.3,0.4s0.1-0.1,0.3,0c0.2,0.1,0.3,0.1,0.5,0c0.1,0,0.1-0.1,0.1-0.2
        c0.1-0.1,0.2-0.3,0.3-0.4c0.2,0.1,0.4,0.1,0.6,0.1c-0.3,0.3-0.8,0.4-1.2,0.5c-0.6,0-0.3-0.2-0.7,0.1c-0.4,0.3,0.3,0.6,0.5,0.5
        s0.3-0.2,0.4-0.2s0.7,0,0.7-0.1s0-0.1,0.1-0.2s1-0.6,1-0.7h0.1c0.1-0.3,0-0.3,0-0.7s0.4-0.4,0.5-0.6c0.1-0.2,0.3-0.2,0.4-0.2
        c0.1,0,0.3,0,0.4-0.1c0,0,0-0.1,0.1-0.1c0.2,0.1,0.3,0.1,0.5,0.1c0.1,0-0.2-0.3-0.2-0.4c0,0,0-0.1,0-0.1c0,0,0,0,0,0
        c0,0-0.1-0.1,0-0.1c0.9-0.1,1.7-0.3,2.6-0.6c1.1-0.3,1.2-0.7,1.1-0.7S31.5,12,31.5,12C32.8,11.5,32.8,11.4,32.8,11.4z"></path>
</svg>