<svg viewBox="0 0 40 40">
        <path d="M20,8.8c-3.3,0-10.5,0.8-7.9,11.7c1.1-0.1,2.1-0.5,3.1-1c-0.4,0.4-0.8,0.8-1.3,1c3,0,5.9-1.4,7.9-3.7
            c-0.2,0.8-0.6,1.6-1,2.4c2-1.3,3.4-3.3,4.2-5.5c0,1.2,1.4,2.7,2.1,4.1c0.5,0.8,0.7,1.8,0.7,2.8C30.5,9.6,23.3,8.8,20,8.8z"></path>
        <path d="M34,12.4c-0.8,0-1.7,2.8-1.7,2.8s-0.5-0.8-0.7-1.2s-0.9-0.2-1.5-0.2c0-5.3-6.9-7.3-10.1-7.3s-10.1,2-10.1,7.3
            c-0.6,0-1.2-0.2-1.5,0.2s-0.7,1.2-0.7,1.2S6.8,12.4,6,12.4c0,0.4,0,0.8,0,1.2c0.2,2,0.5,4,1,6c0.5,1.3,2,4.6,2.4,5.1
            s0.8,0.5,1.3,0.3c0,0-0.7-5-0.8-7.9h0.2c0-4.4,2.5-9.3,9.9-9.3s9.9,5,9.9,9.3h0.2c0,3-0.8,7.9-0.8,7.9c0.5,0.2,1,0.2,1.3-0.3
            s1.8-3.9,2.3-5.2c0.5-2,0.8-4,1-6C34,13.1,34,12.7,34,12.4z"></path>
        <path d="M12.7,25.2c1.1-0.2,2.1-0.4,3.2-0.4c0,0.1-0.1,0.2-3,1.7c0,0-0.1,0-0.1-0.2S12.6,25.2,12.7,25.2z"></path>
        <path d="M14,29.7c0.7-0.8,1.4-1.6,2.2-2.3c0.1,0.1,0.1,0.2-1.3,3.1c0,0-0.1,0.1-0.2,0S13.9,29.8,14,29.7z"></path>
        <path d="M27.2,25.2c-1.1-0.2-2.1-0.4-3.2-0.4c0,0.1,0.1,0.2,3,1.7c0,0,0.1,0,0.1-0.2S27.3,25.2,27.2,25.2z"></path>
        <path d="M26,29.7c-0.7-0.8-1.4-1.6-2.2-2.3c-0.1,0.1-0.1,0.2,1.3,3.1c0,0,0.1,0.1,0.2,0S26.1,29.8,26,29.7z"></path>
    </svg>